<svg width="32" height="32" viewBox="0 0 32 32" fill="none" xmlns="http://www.w3.org/2000/svg">
<path fill-rule="evenodd" clip-rule="evenodd" d="M7.35378 21.6651L8.92711 20.0891C9.43111 19.5851 9.70845 18.9158 9.70845 18.2038V11.9678C9.70845 10.1585 10.4951 8.42914 11.8684 7.22648C13.2524 6.01314 15.0151 5.47981 16.8511 5.72114C19.9538 6.13314 22.2938 8.93848 22.2938 12.2478V18.2038C22.2938 18.9158 22.5711 19.5851 23.0738 20.0878L24.6484 21.6651H7.35378ZM18.6671 24.7865C18.6671 25.9851 17.4458 26.9985 16.0004 26.9985C14.5551 26.9985 13.3338 25.9851 13.3338 24.7865V24.3318H18.6671V24.7865ZM27.3618 20.6091L24.9604 18.2038V12.2478C24.9604 7.60648 21.6244 3.66381 17.2004 3.07848C14.6378 2.73714 12.0511 3.51981 10.1111 5.22114C8.15911 6.93048 7.04178 9.38914 7.04178 11.9678L7.04045 18.2038L4.63911 20.6091C4.01378 21.2358 3.82845 22.1678 4.16711 22.9851C4.50711 23.8038 5.29778 24.3318 6.18311 24.3318H10.6671V24.7865C10.6671 27.4771 13.0591 29.6651 16.0004 29.6651C18.9418 29.6651 21.3338 27.4771 21.3338 24.7865V24.3318H25.8178C26.7031 24.3318 27.4924 23.8038 27.8311 22.9865C28.1711 22.1678 27.9871 21.2345 27.3618 20.6091V20.6091Z" fill="currentColor"/>
</svg>

