<svg width="16" height="16" viewBox="0 0 16 16" fill="none" xmlns="http://www.w3.org/2000/svg">
<path fill-rule="evenodd" clip-rule="evenodd" d="M1.33337 8.00001C1.33337 4.31801 4.31804 1.33334 8.00004 1.33334C11.6814 1.33334 14.6667 4.31801 14.6667 8.00001C14.6667 11.682 11.6814 14.6667 8.00004 14.6667C4.31804 14.6667 1.33337 11.682 1.33337 8.00001ZM2.66671 8.00001C2.66671 10.9407 5.05937 13.3333 8.00004 13.3333C10.9407 13.3333 13.3334 10.9407 13.3334 8.00001C13.3334 5.05934 10.9407 2.66668 8.00004 2.66668C5.05937 2.66668 2.66671 5.05934 2.66671 8.00001Z" fill="#231F20"/>
<path fill-rule="evenodd" clip-rule="evenodd" d="M8.00004 4.88889C7.63204 4.88889 7.33337 5.18755 7.33337 5.55555C7.33337 5.92355 7.63204 6.22222 8.00004 6.22222C8.36804 6.22222 8.66671 5.92355 8.66671 5.55555C8.66671 5.18755 8.36804 4.88889 8.00004 4.88889" fill="#231F20"/>
<path fill-rule="evenodd" clip-rule="evenodd" d="M8.00004 6.88889C7.63204 6.88889 7.33337 7.18755 7.33337 7.55555V10.8889C7.33337 11.2569 7.63204 11.5556 8.00004 11.5556C8.36804 11.5556 8.66671 11.2569 8.66671 10.8889V7.55555C8.66671 7.18755 8.36804 6.88889 8.00004 6.88889" fill="#231F20"/>
</svg>
