<svg width="16" height="16" viewBox="0 0 16 16" fill="none" xmlns="http://www.w3.org/2000/svg">
<mask id="mask0_6_4467" style="mask-type:alpha" maskUnits="userSpaceOnUse" x="0" y="0" width="16" height="16">
<path fill-rule="evenodd" clip-rule="evenodd" d="M11.6295 13.3333H4.3702C4.1662 13.3333 4.0002 13.184 4.0002 13V3.00001C4.0002 2.81601 4.1662 2.66668 4.3702 2.66668H7.33354V5.43334C7.33354 6.48134 8.14487 7.33334 9.14287 7.33334H12.0002V13C12.0002 13.184 11.8335 13.3333 11.6295 13.3333V13.3333ZM11.7662 6.00001H9.14287C8.8802 6.00001 8.66687 5.74601 8.66687 5.43334V2.66668H8.74154L11.7662 6.00001ZM13.1602 5.55201L9.53087 1.55201C9.40487 1.41268 9.22554 1.33334 9.03687 1.33334H4.3702C3.43087 1.33334 2.66687 2.08134 2.66687 3.00001V13C2.66687 13.9187 3.43087 14.6667 4.3702 14.6667H11.6295C12.5689 14.6667 13.3335 13.9187 13.3335 13V6.00001C13.3335 5.83401 13.2715 5.67468 13.1602 5.55201V5.55201Z" fill="#071435"/>
</mask>
<g mask="url(#mask0_6_4467)">
<rect width="16" height="16" fill="#77829E"/>
</g>
</svg>
