<svg width="16" height="16" viewBox="0 0 16 16" fill="none" xmlns="http://www.w3.org/2000/svg">
<path fill-rule="evenodd" clip-rule="evenodd" d="M13.4933 2.174C13.262 1.942 12.8867 1.942 12.6553 2.174L3.174 11.6553C3.058 11.7713 3 11.9227 3 12.0747C3 12.226 3.058 12.378 3.174 12.4933C3.40533 12.7247 3.78 12.7247 4.012 12.4933L13.4933 3.012C13.7247 2.78 13.7247 2.40533 13.4933 2.174M11.0002 12.0002C10.4489 12.0002 10.0002 11.5515 10.0002 11.0002C10.0002 10.4489 10.4489 10.0002 11.0002 10.0002C11.5515 10.0002 12.0002 10.4489 12.0002 11.0002C12.0002 11.5515 11.5515 12.0002 11.0002 12.0002M11.0002 8.66687C9.71353 8.66687 8.66687 9.71353 8.66687 11.0002C8.66687 12.2869 9.71353 13.3335 11.0002 13.3335C12.2869 13.3335 13.3335 12.2869 13.3335 11.0002C13.3335 9.71353 12.2869 8.66687 11.0002 8.66687M5.66687 3.33353C6.2182 3.33353 6.66687 3.7822 6.66687 4.33353C6.66687 4.88487 6.2182 5.33353 5.66687 5.33353C5.11553 5.33353 4.66687 4.88487 4.66687 4.33353C4.66687 3.7822 5.11553 3.33353 5.66687 3.33353M5.66687 6.66687C6.95353 6.66687 8.0002 5.6202 8.0002 4.33353C8.0002 3.04687 6.95353 2.0002 5.66687 2.0002C4.3802 2.0002 3.33353 3.04687 3.33353 4.33353C3.33353 5.6202 4.3802 6.66687 5.66687 6.66687" fill="currentColor"/>
</svg>
