<svg width="32" height="32" viewBox="0 0 32 32" fill="none" xmlns="http://www.w3.org/2000/svg">
<path fill-rule="evenodd" clip-rule="evenodd" d="M9.46267 7.66667C8.31067 7.66667 7.23067 8.112 6.42267 8.92133C4.74533 10.6013 4.74533 13.336 6.424 15.0187L15.836 24.4467L25.2493 15.0187C26.928 13.336 26.928 10.6013 25.2493 8.92133C23.6333 7.30133 20.7853 7.304 19.1693 8.92133L16.78 11.3147C16.2787 11.8173 15.3933 11.8173 14.892 11.3147L12.5027 8.92C11.6947 8.112 10.616 7.66667 9.46267 7.66667M15.836 27.6667V27.6667C15.4827 27.6667 15.1427 27.5267 14.8933 27.2747L4.536 16.9013C1.82133 14.1813 1.82133 9.756 4.536 7.036C5.848 5.724 7.59733 5 9.46267 5C11.328 5 13.0787 5.724 14.3893 7.036L15.836 8.48533L17.2827 7.03733C18.5947 5.724 20.344 5 22.2107 5C24.0747 5 25.8253 5.724 27.136 7.036C29.852 9.756 29.852 14.1813 27.1373 16.9013L16.78 27.276C16.5293 27.5267 16.1907 27.6667 15.836 27.6667" fill="currentColor"/>
</svg>
