<svg width="206" height="43" viewBox="0 0 206 43" preserveAspectRatio="none" fill="none" xmlns="http://www.w3.org/2000/svg">
<path d="M75.6629 16.0385C76.1978 15.8809 76.4867 15.2978 76.2439 14.7957C74.183 10.5343 69.8846 7.80475 64.7396 7.80475C61.0766 7.80475 58.0627 9.00513 55.6052 11.4521C53.1941 13.8528 51.9885 16.8538 51.9885 20.5011C51.9885 24.1484 53.1941 27.1494 55.6052 29.5963C58.0627 31.9971 61.0766 33.1975 64.7396 33.1975C69.8846 33.1975 74.183 30.4679 76.2439 26.2065C76.4867 25.7045 76.1978 25.1214 75.6629 24.9637L71.662 23.7846C71.2031 23.6493 70.7214 23.8798 70.4741 24.2894C69.2907 26.2494 67.1814 27.4264 64.7396 27.4264C62.8386 27.4264 61.2157 26.7801 59.9174 25.4412C58.6191 24.1023 57.97 22.4864 57.97 20.5011C57.97 18.5159 58.6191 16.9 59.9174 15.5611C61.2157 14.2222 62.8386 13.5758 64.7396 13.5758C67.1814 13.5758 69.2907 14.7528 70.4741 16.7128C70.7214 17.1224 71.2031 17.3529 71.662 17.2177L75.6629 16.0385Z" fill="#171D45"/>
<path d="M83.9272 29.5963C86.3847 31.9971 89.3986 33.1975 93.0616 33.1975C96.7247 33.1975 99.7386 31.9971 102.196 29.5963C104.654 27.1494 105.859 24.1484 105.859 20.5011C105.859 16.8538 104.654 13.8528 102.196 11.4521C99.7386 9.00513 96.7247 7.80475 93.0616 7.80475C89.3986 7.80475 86.3847 9.00513 83.9272 11.4521C81.5161 13.8528 80.3105 16.8538 80.3105 20.5011C80.3105 24.1484 81.5161 27.1494 83.9272 29.5963ZM88.2394 15.5611C89.5377 14.2222 91.1606 13.5758 93.0616 13.5758C94.9627 13.5758 96.5856 14.2222 97.8839 15.5611C99.1822 16.9 99.8313 18.5159 99.8313 20.5011C99.8313 22.4864 99.1822 24.1023 97.8839 25.4412C96.5856 26.7801 94.9627 27.4264 93.0616 27.4264C91.1606 27.4264 89.5377 26.7801 88.2394 25.4412C86.9411 24.1023 86.292 22.4864 86.292 20.5011C86.292 18.5159 86.9411 16.9 88.2394 15.5611Z" fill="#171D45"/>
<path d="M114.674 32.505C115.201 32.505 115.628 32.0779 115.628 31.551V18.3774C115.628 15.4687 117.853 13.2988 120.682 13.2988C123.51 13.2988 125.689 15.4687 125.689 18.3774V31.551C125.689 32.0779 126.116 32.505 126.643 32.505H130.532C131.058 32.505 131.485 32.0779 131.485 31.551V18.3774C131.485 15.4687 133.711 13.2988 136.539 13.2988C139.368 13.2988 141.547 15.4687 141.547 18.3774V31.551C141.547 32.0779 141.974 32.505 142.501 32.505H146.343C146.87 32.505 147.297 32.0779 147.297 31.551V16.7153C147.297 14.176 146.369 12.0523 144.561 10.344C142.753 8.63578 140.481 7.80475 137.699 7.80475C134.883 7.80475 132.613 8.69921 130.942 10.5147C130.451 11.0473 129.552 11.0472 129.064 10.5129C127.404 8.69863 125.173 7.80475 122.397 7.80475C120.133 7.80475 118.225 8.48526 116.698 9.86995C116.317 10.2158 115.628 9.96616 115.628 9.45124C115.628 8.92438 115.201 8.49728 114.674 8.49728H110.785C110.259 8.49728 109.832 8.92438 109.832 9.45124V31.551C109.832 32.0779 110.259 32.505 110.785 32.505H114.674Z" fill="#171D45"/>
<path d="M156.108 42.893C156.634 42.893 157.061 42.4659 157.061 41.939V32.6988C157.061 31.8581 158.054 31.3694 158.788 31.7786C160.475 32.7184 162.319 33.1976 164.341 33.1976C167.68 33.1976 170.462 31.9972 172.734 29.5964C175.006 27.1495 176.119 24.1485 176.119 20.5012C176.119 16.8539 175.006 13.8529 172.734 11.4521C170.462 9.00518 167.68 7.80479 164.341 7.80479C161.923 7.80479 159.758 8.4904 157.815 9.82971C157.503 10.0444 157.061 9.82956 157.061 9.45128C157.061 8.92442 156.634 8.49732 156.108 8.49732H152.219C151.692 8.49732 151.265 8.92442 151.265 9.45128V41.939C151.265 42.4659 151.692 42.893 152.219 42.893H156.108ZM168.19 15.5611C169.442 16.9 170.091 18.5159 170.091 20.5012C170.091 22.4864 169.442 24.1023 168.19 25.4412C166.938 26.7801 165.408 27.4265 163.599 27.4265C161.791 27.4265 160.261 26.7801 159.009 25.4412C157.757 24.1023 157.154 22.4864 157.154 20.5012C157.154 18.5159 157.757 16.9 159.009 15.5611C160.261 14.2222 161.791 13.5759 163.599 13.5759C165.408 13.5759 166.938 14.2222 168.19 15.5611Z" fill="#171D45"/>
<path d="M183.705 29.5964C186.163 31.9972 189.177 33.1976 192.84 33.1976C196.503 33.1976 199.517 31.9972 201.974 29.5964C204.432 27.1495 205.637 24.1485 205.637 20.5012C205.637 16.8539 204.432 13.8529 201.974 11.4521C199.517 9.00518 196.503 7.80479 192.84 7.80479C189.177 7.80479 186.163 9.00518 183.705 11.4521C181.294 13.8529 180.089 16.8539 180.089 20.5012C180.089 24.1485 181.294 27.1495 183.705 29.5964ZM188.018 15.5611C189.316 14.2222 190.939 13.5759 192.84 13.5759C194.741 13.5759 196.364 14.2222 197.662 15.5611C198.96 16.9 199.61 18.5159 199.61 20.5012C199.61 22.4864 198.96 24.1023 197.662 25.4412C196.364 26.7801 194.741 27.4265 192.84 27.4265C190.939 27.4265 189.316 26.7801 188.018 25.4412C186.719 24.1023 186.07 22.4864 186.07 20.5012C186.07 18.5159 186.719 16.9 188.018 15.5611Z" fill="#171D45"/>
<path d="M23.9947 4.50014C23.9947 2.291 25.7852 0.500137 27.9938 0.500137H35.992C38.2007 0.500137 39.9911 2.291 39.9911 4.50014V12.5001C39.9911 14.7093 38.2007 16.5001 35.992 16.5001H27.9938C25.7852 16.5001 23.9947 14.7093 23.9947 12.5001V4.50014Z" fill="#1551E5"/>
<path d="M0 28.5001C0 26.291 1.79046 24.5001 3.99911 24.5001H11.9973C14.206 24.5001 15.9964 26.291 15.9964 28.5001V36.5001C15.9964 38.7093 14.206 40.5001 11.9973 40.5001H3.99911C1.79046 40.5001 0 38.7093 0 36.5001V28.5001Z" fill="#1551E5"/>
<path fill-rule="evenodd" clip-rule="evenodd" d="M23.9947 12.5001C23.9947 14.7093 22.2042 16.5001 19.9956 16.5001C17.7869 16.5001 15.9965 14.7093 15.9965 12.5001C15.9965 14.7093 14.206 16.5001 11.9974 16.5001C14.206 16.5001 15.9964 18.291 15.9964 20.5001C15.9964 22.7093 14.206 24.5001 11.9973 24.5001L15.9964 28.5001C15.9964 26.291 17.7869 24.5001 19.9956 24.5001C22.2042 24.5001 23.9947 26.291 23.9947 28.5001L27.9938 24.5001C25.7851 24.5001 23.9947 22.7093 23.9947 20.5001C23.9947 18.291 25.7851 16.5001 27.9938 16.5001L23.9947 12.5001Z" fill="#1551E5"/>
<path d="M11.9974 0.500137H3.99913C1.79048 0.500137 1.95269e-05 2.291 1.95269e-05 4.50014V12.5001C1.95269e-05 14.7093 1.79048 16.5001 3.99913 16.5001H11.9974L15.9965 12.5001V4.50014C15.9965 2.291 14.206 0.500137 11.9974 0.500137Z" fill="#1551E5"/>
<path d="M15.9965 12.5001C15.9965 14.7093 14.206 16.5001 11.9974 16.5001L15.9965 12.5001Z" fill="#1551E5"/>
<path d="M23.9947 28.5001C23.9947 26.291 25.7851 24.5001 27.9938 24.5001H35.992C38.2006 24.5001 39.9911 26.291 39.9911 28.5001V36.5001C39.9911 38.7093 38.2006 40.5001 35.992 40.5001H27.9938C25.7851 40.5001 23.9947 38.7093 23.9947 36.5001V28.5001Z" fill="#1551E5"/>
</svg>
