<svg width="16" height="16" viewBox="0 0 16 16" fill="none" xmlns="http://www.w3.org/2000/svg">
<path fill-rule="evenodd" clip-rule="evenodd" d="M4.33347 7.66618C4.33347 7.29818 4.63213 6.99951 5.00013 6.99951C5.36813 6.99951 5.6668 7.29818 5.6668 7.66618C5.6668 8.03418 5.36813 8.33285 5.00013 8.33285C4.63213 8.33285 4.33347 8.03418 4.33347 7.66618ZM7.6668 6.99951C7.2988 6.99951 7.00013 7.29818 7.00013 7.66618C7.00013 8.03418 7.2988 8.33285 7.6668 8.33285C8.0348 8.33285 8.33347 8.03418 8.33347 7.66618C8.33347 7.29818 8.0348 6.99951 7.6668 6.99951ZM10.3335 6.99951C9.96547 6.99951 9.6668 7.29818 9.6668 7.66618C9.6668 8.03418 9.96547 8.33285 10.3335 8.33285C10.7015 8.33285 11.0001 8.03418 11.0001 7.66618C11.0001 7.29818 10.7015 6.99951 10.3335 6.99951ZM12.9324 8.52945C12.5944 10.6988 10.8457 12.4981 8.67973 12.9041C7.63373 13.1014 6.5684 12.9888 5.60173 12.5794C5.32773 12.4634 5.0444 12.4048 4.7664 12.4048C4.63973 12.4048 4.5144 12.4168 4.39107 12.4414L2.5164 12.8161L2.89173 10.9381C2.9704 10.5481 2.9224 10.1308 2.75373 9.73145C2.3444 8.76478 2.2324 7.70011 2.42907 6.65345C2.83507 4.48745 4.63373 2.73878 6.80373 2.40078V2.40078C8.5304 2.13211 10.2191 2.67611 11.4377 3.89478C12.6571 5.11411 13.2017 6.80345 12.9324 8.52945M12.3811 2.95211C10.8577 1.42945 8.75107 0.750114 6.5984 1.08278C3.8804 1.50678 1.62707 3.69611 1.1184 6.40745C0.873067 7.71278 1.0144 9.04211 1.52573 10.2508C1.5904 10.4048 1.6104 10.5481 1.58507 10.6768L1.01307 13.5354C0.969067 13.7541 1.03773 13.9801 1.19573 14.1374C1.32173 14.2641 1.49173 14.3328 1.66707 14.3328C1.7104 14.3328 1.75373 14.3288 1.79773 14.3201L4.65307 13.7488C4.81707 13.7174 4.97573 13.7634 5.08173 13.8074C6.29173 14.3188 7.62107 14.4594 8.92507 14.2148C11.6371 13.7061 13.8264 11.4528 14.2504 8.73478C14.5851 6.58345 13.9044 4.47545 12.3811 2.95211" fill="currentColor"/>
</svg>
