<svg width="16" height="16" viewBox="0 0 16 16" fill="none" xmlns="http://www.w3.org/2000/svg">
<path fill-rule="evenodd" clip-rule="evenodd" d="M13.5 9.9L11.6273 8.16667L13.5 6.434V9.9ZM10.1667 10.8333C10.1667 11.2013 9.868 11.5 9.5 11.5H3.5C3.132 11.5 2.83333 11.2013 2.83333 10.8333V5.5C2.83333 5.13267 3.132 4.83333 3.5 4.83333H9.5C9.868 4.83333 10.1667 5.13267 10.1667 5.5V10.8333ZM14.1747 4.93067C13.7573 4.74867 13.2733 4.828 12.9407 5.13467L11.5 6.468V5.5C11.5 4.39733 10.6027 3.5 9.5 3.5H3.5C2.39733 3.5 1.5 4.39733 1.5 5.5V10.8333C1.5 11.9367 2.39733 12.8333 3.5 12.8333H9.5C10.6027 12.8333 11.5 11.9367 11.5 10.8333V9.866L12.9407 11.1987C13.154 11.3967 13.4307 11.5 13.7127 11.5C13.8687 11.5 14.0253 11.4687 14.1747 11.4033C14.5807 11.226 14.8333 10.8467 14.8333 10.414V5.92C14.8333 5.48733 14.5807 5.108 14.1747 4.93067V4.93067Z" fill="#071435"/>
</svg>
