<svg xmlns="http://www.w3.org/2000/svg" xmlns:xlink="http://www.w3.org/1999/xlink"><symbol id="arrow" viewBox="0 0 32 32">
<path fill-rule="evenodd" clip-rule="evenodd" d="M17.7315 25.1687C17.9955 25.4967 18.3822 25.666 18.7715 25.666C19.0648 25.666 19.3608 25.57 19.6062 25.3714C20.1808 24.91 20.2715 24.07 19.8102 23.4967L14.0568 16.3474L20.0235 9.18599C20.4955 8.62066 20.4195 7.77933 19.8542 7.30866C19.2875 6.83799 18.4462 6.91399 17.9755 7.47933L11.3088 15.4794C10.9022 15.9674 10.8968 16.674 11.2942 17.1687L17.7315 25.1687Z" fill="currentColor"/>
</symbol><symbol id="bell" viewBox="0 0 32 32">
<path fill-rule="evenodd" clip-rule="evenodd" d="M7.35378 21.6651L8.92711 20.0891C9.43111 19.5851 9.70845 18.9158 9.70845 18.2038V11.9678C9.70845 10.1585 10.4951 8.42914 11.8684 7.22648C13.2524 6.01314 15.0151 5.47981 16.8511 5.72114C19.9538 6.13314 22.2938 8.93848 22.2938 12.2478V18.2038C22.2938 18.9158 22.5711 19.5851 23.0738 20.0878L24.6484 21.6651H7.35378ZM18.6671 24.7865C18.6671 25.9851 17.4458 26.9985 16.0004 26.9985C14.5551 26.9985 13.3338 25.9851 13.3338 24.7865V24.3318H18.6671V24.7865ZM27.3618 20.6091L24.9604 18.2038V12.2478C24.9604 7.60648 21.6244 3.66381 17.2004 3.07848C14.6378 2.73714 12.0511 3.51981 10.1111 5.22114C8.15911 6.93048 7.04178 9.38914 7.04178 11.9678L7.04045 18.2038L4.63911 20.6091C4.01378 21.2358 3.82845 22.1678 4.16711 22.9851C4.50711 23.8038 5.29778 24.3318 6.18311 24.3318H10.6671V24.7865C10.6671 27.4771 13.0591 29.6651 16.0004 29.6651C18.9418 29.6651 21.3338 27.4771 21.3338 24.7865V24.3318H25.8178C26.7031 24.3318 27.4924 23.8038 27.8311 22.9865C28.1711 22.1678 27.9871 21.2345 27.3618 20.6091V20.6091Z" fill="currentColor"/>
</symbol><symbol id="cart" viewBox="0 0 24 24">
<path fill-rule="evenodd" clip-rule="evenodd" d="M16.382 14H8.764L7.127 8H19.382L16.382 14ZM21.083 6.948C20.716 6.354 20.08 6 19.382 6H6.582L5.965 3.737C5.846 3.302 5.451 3 5 3H3C2.447 3 2 3.448 2 4C2 4.552 2.447 5 3 5H4.236L7.035 15.263C7.154 15.698 7.549 16 8 16H17C17.379 16 17.725 15.786 17.895 15.447L21.171 8.894C21.484 8.269 21.45 7.542 21.083 6.948ZM7.5002 18C6.6722 18 6.0002 18.671 6.0002 19.5C6.0002 20.329 6.6722 21 7.5002 21C8.3282 21 9.0002 20.329 9.0002 19.5C9.0002 18.671 8.3282 18 7.5002 18ZM16.0002 19.5C16.0002 18.671 16.6722 18 17.5002 18C18.3282 18 19.0002 18.671 19.0002 19.5C19.0002 20.329 18.3282 21 17.5002 21C16.6722 21 16.0002 20.329 16.0002 19.5Z" fill="currentColor"/>
</symbol><symbol id="close" viewBox="0 0 24 24">
<rect x="5.63604" y="16.9497" width="16" height="2" rx="1" transform="rotate(-45 5.63604 16.9497)" fill="currentColor"/>
<rect x="16.9497" y="18.364" width="16" height="2" rx="1" transform="rotate(-135 16.9497 18.364)" fill="currentColor"/>
</symbol><symbol id="faq" viewBox="0 0 16 16">
<path fill-rule="evenodd" clip-rule="evenodd" d="M1.33337 8.00001C1.33337 4.31801 4.31804 1.33334 8.00004 1.33334C11.6814 1.33334 14.6667 4.31801 14.6667 8.00001C14.6667 11.682 11.6814 14.6667 8.00004 14.6667C4.31804 14.6667 1.33337 11.682 1.33337 8.00001ZM2.66671 8.00001C2.66671 10.9407 5.05937 13.3333 8.00004 13.3333C10.9407 13.3333 13.3334 10.9407 13.3334 8.00001C13.3334 5.05934 10.9407 2.66668 8.00004 2.66668C5.05937 2.66668 2.66671 5.05934 2.66671 8.00001Z" fill="#231F20"/>
<path fill-rule="evenodd" clip-rule="evenodd" d="M8.00004 4.88889C7.63204 4.88889 7.33337 5.18755 7.33337 5.55555C7.33337 5.92355 7.63204 6.22222 8.00004 6.22222C8.36804 6.22222 8.66671 5.92355 8.66671 5.55555C8.66671 5.18755 8.36804 4.88889 8.00004 4.88889" fill="#231F20"/>
<path fill-rule="evenodd" clip-rule="evenodd" d="M8.00004 6.88889C7.63204 6.88889 7.33337 7.18755 7.33337 7.55555V10.8889C7.33337 11.2569 7.63204 11.5556 8.00004 11.5556C8.36804 11.5556 8.66671 11.2569 8.66671 10.8889V7.55555C8.66671 7.18755 8.36804 6.88889 8.00004 6.88889" fill="#231F20"/>
</symbol><symbol id="heart" viewBox="0 0 32 32">
<path fill-rule="evenodd" clip-rule="evenodd" d="M9.46267 7.66667C8.31067 7.66667 7.23067 8.112 6.42267 8.92133C4.74533 10.6013 4.74533 13.336 6.424 15.0187L15.836 24.4467L25.2493 15.0187C26.928 13.336 26.928 10.6013 25.2493 8.92133C23.6333 7.30133 20.7853 7.304 19.1693 8.92133L16.78 11.3147C16.2787 11.8173 15.3933 11.8173 14.892 11.3147L12.5027 8.92C11.6947 8.112 10.616 7.66667 9.46267 7.66667M15.836 27.6667V27.6667C15.4827 27.6667 15.1427 27.5267 14.8933 27.2747L4.536 16.9013C1.82133 14.1813 1.82133 9.756 4.536 7.036C5.848 5.724 7.59733 5 9.46267 5C11.328 5 13.0787 5.724 14.3893 7.036L15.836 8.48533L17.2827 7.03733C18.5947 5.724 20.344 5 22.2107 5C24.0747 5 25.8253 5.724 27.136 7.036C29.852 9.756 29.852 14.1813 27.1373 16.9013L16.78 27.276C16.5293 27.5267 16.1907 27.6667 15.836 27.6667" fill="currentColor"/>
</symbol><symbol id="Icon" viewBox="0 0 16 16">
<mask id="mask0_6_4467" style="mask-type:alpha" maskUnits="userSpaceOnUse" x="0" y="0" width="16" height="16">
<path fill-rule="evenodd" clip-rule="evenodd" d="M11.6295 13.3333H4.3702C4.1662 13.3333 4.0002 13.184 4.0002 13V3.00001C4.0002 2.81601 4.1662 2.66668 4.3702 2.66668H7.33354V5.43334C7.33354 6.48134 8.14487 7.33334 9.14287 7.33334H12.0002V13C12.0002 13.184 11.8335 13.3333 11.6295 13.3333V13.3333ZM11.7662 6.00001H9.14287C8.8802 6.00001 8.66687 5.74601 8.66687 5.43334V2.66668H8.74154L11.7662 6.00001ZM13.1602 5.55201L9.53087 1.55201C9.40487 1.41268 9.22554 1.33334 9.03687 1.33334H4.3702C3.43087 1.33334 2.66687 2.08134 2.66687 3.00001V13C2.66687 13.9187 3.43087 14.6667 4.3702 14.6667H11.6295C12.5689 14.6667 13.3335 13.9187 13.3335 13V6.00001C13.3335 5.83401 13.2715 5.67468 13.1602 5.55201V5.55201Z" fill="#071435"/>
</mask>
<g mask="url(#mask0_6_4467)">
<rect width="16" height="16" fill="#77829E"/>
</g>
</symbol><symbol id="logo-gray" viewBox="0 0 124 26">
<path d="M14.6827 2.40043C14.6827 1.07494 15.757 0.000427246 17.0822 0.000427246H21.8811C23.2063 0.000427246 24.2806 1.07494 24.2806 2.40043V7.20043C24.2806 8.52591 23.2063 9.60043 21.8811 9.60043H17.0822C15.757 9.60043 14.6827 8.52591 14.6827 7.20043V2.40043Z" fill="#828EAD"/>
<path d="M14.6827 16.8004C14.6827 15.4749 15.757 14.4004 17.0822 14.4004H21.8811C23.2063 14.4004 24.2806 15.4749 24.2806 16.8004V21.6004C24.2806 22.9259 23.2063 24.0004 21.8811 24.0004H17.0822C15.757 24.0004 14.6827 22.9259 14.6827 21.6004V16.8004Z" fill="#828EAD"/>
<path d="M0.285889 16.8004C0.285889 15.4749 1.36017 14.4004 2.68536 14.4004H7.48429C8.80948 14.4004 9.88376 15.4749 9.88376 16.8004V21.6004C9.88376 22.9259 8.80948 24.0004 7.48429 24.0004H2.68536C1.36017 24.0004 0.285889 22.9259 0.285889 21.6004V16.8004Z" fill="#828EAD"/>
<path fill-rule="evenodd" clip-rule="evenodd" d="M14.6827 7.20043C14.6827 8.52591 13.6084 9.60043 12.2832 9.60043C10.958 9.60043 9.88377 8.52591 9.88377 7.20043C9.88377 8.52591 8.80949 9.60043 7.4843 9.60043C8.80949 9.60043 9.88376 10.6749 9.88376 12.0004C9.88376 13.3259 8.80948 14.4004 7.48429 14.4004L9.88376 16.8004C9.88376 15.4749 10.958 14.4004 12.2832 14.4004C13.6084 14.4004 14.6827 15.4749 14.6827 16.8004L17.0822 14.4004C15.757 14.4004 14.6827 13.3259 14.6827 12.0004C14.6827 10.6749 15.757 9.60043 17.0822 9.60043L14.6827 7.20043Z" fill="#828EAD"/>
<path d="M7.4843 0.000427246H2.68537C1.36018 0.000427246 0.2859 1.07494 0.2859 2.40043V7.20043C0.2859 8.52591 1.36018 9.60043 2.68537 9.60043H7.4843L9.88377 7.20043V2.40043C9.88377 1.07494 8.80949 0.000427246 7.4843 0.000427246Z" fill="#828EAD"/>
<path d="M9.88377 7.20043C9.88377 8.52591 8.80949 9.60043 7.4843 9.60043L9.88377 7.20043Z" fill="#828EAD"/>
<path d="M45.6834 9.32343C46.0043 9.22885 46.1777 8.87899 46.032 8.57775C44.7954 6.02091 42.2164 4.38318 39.1294 4.38318C36.9316 4.38318 35.1233 5.10341 33.6488 6.57157C32.2021 8.01203 31.4788 9.81261 31.4788 12.001C31.4788 14.1894 32.2021 15.99 33.6488 17.4581C35.1233 18.8986 36.9316 19.6188 39.1294 19.6188C42.2164 19.6188 44.7954 17.9811 46.032 15.4243C46.1777 15.123 46.0043 14.7732 45.6834 14.6786L43.2828 13.9711C43.0075 13.8899 42.7185 14.0282 42.5701 14.274C41.8601 15.45 40.5945 16.1562 39.1294 16.1562C37.9888 16.1562 37.0151 15.7684 36.2361 14.965C35.4571 14.1617 35.0676 13.1922 35.0676 12.001C35.0676 10.8099 35.4571 9.84031 36.2361 9.03698C37.0151 8.23364 37.9888 7.84583 39.1294 7.84583C40.5945 7.84583 41.8601 8.55202 42.5701 9.72803C42.7185 9.97379 43.0075 10.1121 43.2828 10.0309L45.6834 9.32343Z" fill="#828EAD"/>
<path d="M50.642 17.4581C52.1165 18.8986 53.9248 19.6188 56.1226 19.6188C58.3205 19.6188 60.1288 18.8986 61.6033 17.4581C63.0778 15.99 63.8011 14.1894 63.8011 12.001C63.8011 9.81261 63.0778 8.01203 61.6033 6.57157C60.1288 5.10341 58.3205 4.38318 56.1226 4.38318C53.9248 4.38318 52.1165 5.10341 50.642 6.57157C49.1953 8.01203 48.472 9.81261 48.472 12.001C48.472 14.1894 49.1953 15.99 50.642 17.4581ZM53.2293 9.03698C54.0083 8.23364 54.982 7.84583 56.1226 7.84583C57.2633 7.84583 58.237 8.23364 59.016 9.03698C59.795 9.84031 60.1844 10.8099 60.1844 12.001C60.1844 13.1922 59.795 14.1617 59.016 14.965C58.237 15.7684 57.2633 16.1562 56.1226 16.1562C54.982 16.1562 54.0083 15.7684 53.2293 14.965C52.4503 14.1617 52.0608 13.1922 52.0608 12.001C52.0608 10.8099 52.4503 9.84031 53.2293 9.03698Z" fill="#828EAD"/>
<path d="M69.09 19.2033C69.406 19.2033 69.6622 18.9471 69.6622 18.6309V10.7267C69.6622 8.98157 70.9976 7.67962 72.6947 7.67962C74.3917 7.67962 75.6993 8.98157 75.6993 10.7267V18.6309C75.6993 18.9471 75.9555 19.2033 76.2715 19.2033H78.6046C78.9207 19.2033 79.1769 18.9471 79.1769 18.6309V10.7267C79.1769 8.98157 80.5123 7.67962 82.2093 7.67962C83.9064 7.67962 85.2139 8.98157 85.2139 10.7267V18.6309C85.2139 18.9471 85.4702 19.2033 85.7862 19.2033H88.0915C88.4075 19.2033 88.6637 18.9471 88.6637 18.6309V9.72951C88.6637 8.20594 88.1073 6.93169 87.0223 5.90674C85.9373 4.8818 84.5741 4.38318 82.9048 4.38318C81.2155 4.38318 79.8534 4.91985 78.8506 6.00915C78.5564 6.32872 78.0171 6.32863 77.7239 6.0081C76.7283 4.91951 75.3897 4.38318 73.724 4.38318C72.3655 4.38318 71.2209 4.79148 70.3045 5.6223C70.0756 5.82979 69.6622 5.68003 69.6622 5.37107C69.6622 5.05496 69.406 4.7987 69.09 4.7987H66.7569C66.4408 4.7987 66.1846 5.05496 66.1846 5.37107V18.6309C66.1846 18.9471 66.4408 19.2033 66.7569 19.2033H69.09Z" fill="#828EAD"/>
<path d="M93.9502 25.4361C94.2663 25.4361 94.5225 25.1799 94.5225 24.8637V19.3196C94.5225 18.8152 95.1182 18.522 95.5587 18.7675C96.5704 19.3314 97.6772 19.6189 98.8903 19.6189C100.893 19.6189 102.563 18.8986 103.926 17.4582C105.289 15.99 105.957 14.1894 105.957 12.001C105.957 9.81264 105.289 8.01206 103.926 6.5716C102.563 5.10344 100.893 4.3832 98.8903 4.3832C97.4392 4.3832 96.1403 4.79457 94.9743 5.59816C94.7875 5.72694 94.5225 5.59807 94.5225 5.3711C94.5225 5.05498 94.2663 4.79872 93.9502 4.79872H91.6172C91.3011 4.79872 91.0449 5.05498 91.0449 5.3711V24.8637C91.0449 25.1799 91.3011 25.4361 91.6172 25.4361H93.9502ZM101.199 9.03701C101.951 9.84034 102.34 10.8099 102.34 12.001C102.34 13.1922 101.951 14.1617 101.199 14.9651C100.448 15.7684 99.5302 16.1562 98.4452 16.1562C97.3602 16.1562 96.4421 15.7684 95.6909 14.9651C94.9398 14.1617 94.5781 13.1922 94.5781 12.001C94.5781 10.8099 94.9398 9.84034 95.6909 9.03701C96.4421 8.23367 97.3602 7.84585 98.4452 7.84585C99.5302 7.84585 100.448 8.23367 101.199 9.03701Z" fill="#828EAD"/>
<path d="M110.509 17.4582C111.983 18.8986 113.792 19.6189 115.99 19.6189C118.187 19.6189 119.996 18.8986 121.47 17.4582C122.945 15.99 123.668 14.1894 123.668 12.001C123.668 9.81264 122.945 8.01206 121.47 6.5716C119.996 5.10344 118.187 4.3832 115.99 4.3832C113.792 4.3832 111.983 5.10344 110.509 6.5716C109.062 8.01206 108.339 9.81264 108.339 12.001C108.339 14.1894 109.062 15.99 110.509 17.4582ZM113.096 9.03701C113.875 8.23367 114.849 7.84585 115.99 7.84585C117.13 7.84585 118.104 8.23367 118.883 9.03701C119.662 9.84034 120.051 10.8099 120.051 12.001C120.051 13.1922 119.662 14.1617 118.883 14.9651C118.104 15.7684 117.13 16.1562 115.99 16.1562C114.849 16.1562 113.875 15.7684 113.096 14.9651C112.317 14.1617 111.928 13.1922 111.928 12.001C111.928 10.8099 112.317 9.84034 113.096 9.03701Z" fill="#828EAD"/>
</symbol><symbol id="logo" viewBox="0 0 206 43" preserveAspectRatio="none">
<path d="M75.6629 16.0385C76.1978 15.8809 76.4867 15.2978 76.2439 14.7957C74.183 10.5343 69.8846 7.80475 64.7396 7.80475C61.0766 7.80475 58.0627 9.00513 55.6052 11.4521C53.1941 13.8528 51.9885 16.8538 51.9885 20.5011C51.9885 24.1484 53.1941 27.1494 55.6052 29.5963C58.0627 31.9971 61.0766 33.1975 64.7396 33.1975C69.8846 33.1975 74.183 30.4679 76.2439 26.2065C76.4867 25.7045 76.1978 25.1214 75.6629 24.9637L71.662 23.7846C71.2031 23.6493 70.7214 23.8798 70.4741 24.2894C69.2907 26.2494 67.1814 27.4264 64.7396 27.4264C62.8386 27.4264 61.2157 26.7801 59.9174 25.4412C58.6191 24.1023 57.97 22.4864 57.97 20.5011C57.97 18.5159 58.6191 16.9 59.9174 15.5611C61.2157 14.2222 62.8386 13.5758 64.7396 13.5758C67.1814 13.5758 69.2907 14.7528 70.4741 16.7128C70.7214 17.1224 71.2031 17.3529 71.662 17.2177L75.6629 16.0385Z" fill="#171D45"/>
<path d="M83.9272 29.5963C86.3847 31.9971 89.3986 33.1975 93.0616 33.1975C96.7247 33.1975 99.7386 31.9971 102.196 29.5963C104.654 27.1494 105.859 24.1484 105.859 20.5011C105.859 16.8538 104.654 13.8528 102.196 11.4521C99.7386 9.00513 96.7247 7.80475 93.0616 7.80475C89.3986 7.80475 86.3847 9.00513 83.9272 11.4521C81.5161 13.8528 80.3105 16.8538 80.3105 20.5011C80.3105 24.1484 81.5161 27.1494 83.9272 29.5963ZM88.2394 15.5611C89.5377 14.2222 91.1606 13.5758 93.0616 13.5758C94.9627 13.5758 96.5856 14.2222 97.8839 15.5611C99.1822 16.9 99.8313 18.5159 99.8313 20.5011C99.8313 22.4864 99.1822 24.1023 97.8839 25.4412C96.5856 26.7801 94.9627 27.4264 93.0616 27.4264C91.1606 27.4264 89.5377 26.7801 88.2394 25.4412C86.9411 24.1023 86.292 22.4864 86.292 20.5011C86.292 18.5159 86.9411 16.9 88.2394 15.5611Z" fill="#171D45"/>
<path d="M114.674 32.505C115.201 32.505 115.628 32.0779 115.628 31.551V18.3774C115.628 15.4687 117.853 13.2988 120.682 13.2988C123.51 13.2988 125.689 15.4687 125.689 18.3774V31.551C125.689 32.0779 126.116 32.505 126.643 32.505H130.532C131.058 32.505 131.485 32.0779 131.485 31.551V18.3774C131.485 15.4687 133.711 13.2988 136.539 13.2988C139.368 13.2988 141.547 15.4687 141.547 18.3774V31.551C141.547 32.0779 141.974 32.505 142.501 32.505H146.343C146.87 32.505 147.297 32.0779 147.297 31.551V16.7153C147.297 14.176 146.369 12.0523 144.561 10.344C142.753 8.63578 140.481 7.80475 137.699 7.80475C134.883 7.80475 132.613 8.69921 130.942 10.5147C130.451 11.0473 129.552 11.0472 129.064 10.5129C127.404 8.69863 125.173 7.80475 122.397 7.80475C120.133 7.80475 118.225 8.48526 116.698 9.86995C116.317 10.2158 115.628 9.96616 115.628 9.45124C115.628 8.92438 115.201 8.49728 114.674 8.49728H110.785C110.259 8.49728 109.832 8.92438 109.832 9.45124V31.551C109.832 32.0779 110.259 32.505 110.785 32.505H114.674Z" fill="#171D45"/>
<path d="M156.108 42.893C156.634 42.893 157.061 42.4659 157.061 41.939V32.6988C157.061 31.8581 158.054 31.3694 158.788 31.7786C160.475 32.7184 162.319 33.1976 164.341 33.1976C167.68 33.1976 170.462 31.9972 172.734 29.5964C175.006 27.1495 176.119 24.1485 176.119 20.5012C176.119 16.8539 175.006 13.8529 172.734 11.4521C170.462 9.00518 167.68 7.80479 164.341 7.80479C161.923 7.80479 159.758 8.4904 157.815 9.82971C157.503 10.0444 157.061 9.82956 157.061 9.45128C157.061 8.92442 156.634 8.49732 156.108 8.49732H152.219C151.692 8.49732 151.265 8.92442 151.265 9.45128V41.939C151.265 42.4659 151.692 42.893 152.219 42.893H156.108ZM168.19 15.5611C169.442 16.9 170.091 18.5159 170.091 20.5012C170.091 22.4864 169.442 24.1023 168.19 25.4412C166.938 26.7801 165.408 27.4265 163.599 27.4265C161.791 27.4265 160.261 26.7801 159.009 25.4412C157.757 24.1023 157.154 22.4864 157.154 20.5012C157.154 18.5159 157.757 16.9 159.009 15.5611C160.261 14.2222 161.791 13.5759 163.599 13.5759C165.408 13.5759 166.938 14.2222 168.19 15.5611Z" fill="#171D45"/>
<path d="M183.705 29.5964C186.163 31.9972 189.177 33.1976 192.84 33.1976C196.503 33.1976 199.517 31.9972 201.974 29.5964C204.432 27.1495 205.637 24.1485 205.637 20.5012C205.637 16.8539 204.432 13.8529 201.974 11.4521C199.517 9.00518 196.503 7.80479 192.84 7.80479C189.177 7.80479 186.163 9.00518 183.705 11.4521C181.294 13.8529 180.089 16.8539 180.089 20.5012C180.089 24.1485 181.294 27.1495 183.705 29.5964ZM188.018 15.5611C189.316 14.2222 190.939 13.5759 192.84 13.5759C194.741 13.5759 196.364 14.2222 197.662 15.5611C198.96 16.9 199.61 18.5159 199.61 20.5012C199.61 22.4864 198.96 24.1023 197.662 25.4412C196.364 26.7801 194.741 27.4265 192.84 27.4265C190.939 27.4265 189.316 26.7801 188.018 25.4412C186.719 24.1023 186.07 22.4864 186.07 20.5012C186.07 18.5159 186.719 16.9 188.018 15.5611Z" fill="#171D45"/>
<path d="M23.9947 4.50014C23.9947 2.291 25.7852 0.500137 27.9938 0.500137H35.992C38.2007 0.500137 39.9911 2.291 39.9911 4.50014V12.5001C39.9911 14.7093 38.2007 16.5001 35.992 16.5001H27.9938C25.7852 16.5001 23.9947 14.7093 23.9947 12.5001V4.50014Z" fill="#1551E5"/>
<path d="M0 28.5001C0 26.291 1.79046 24.5001 3.99911 24.5001H11.9973C14.206 24.5001 15.9964 26.291 15.9964 28.5001V36.5001C15.9964 38.7093 14.206 40.5001 11.9973 40.5001H3.99911C1.79046 40.5001 0 38.7093 0 36.5001V28.5001Z" fill="#1551E5"/>
<path fill-rule="evenodd" clip-rule="evenodd" d="M23.9947 12.5001C23.9947 14.7093 22.2042 16.5001 19.9956 16.5001C17.7869 16.5001 15.9965 14.7093 15.9965 12.5001C15.9965 14.7093 14.206 16.5001 11.9974 16.5001C14.206 16.5001 15.9964 18.291 15.9964 20.5001C15.9964 22.7093 14.206 24.5001 11.9973 24.5001L15.9964 28.5001C15.9964 26.291 17.7869 24.5001 19.9956 24.5001C22.2042 24.5001 23.9947 26.291 23.9947 28.5001L27.9938 24.5001C25.7851 24.5001 23.9947 22.7093 23.9947 20.5001C23.9947 18.291 25.7851 16.5001 27.9938 16.5001L23.9947 12.5001Z" fill="#1551E5"/>
<path d="M11.9974 0.500137H3.99913C1.79048 0.500137 1.95269e-05 2.291 1.95269e-05 4.50014V12.5001C1.95269e-05 14.7093 1.79048 16.5001 3.99913 16.5001H11.9974L15.9965 12.5001V4.50014C15.9965 2.291 14.206 0.500137 11.9974 0.500137Z" fill="#1551E5"/>
<path d="M15.9965 12.5001C15.9965 14.7093 14.206 16.5001 11.9974 16.5001L15.9965 12.5001Z" fill="#1551E5"/>
<path d="M23.9947 28.5001C23.9947 26.291 25.7851 24.5001 27.9938 24.5001H35.992C38.2006 24.5001 39.9911 26.291 39.9911 28.5001V36.5001C39.9911 38.7093 38.2006 40.5001 35.992 40.5001H27.9938C25.7851 40.5001 23.9947 38.7093 23.9947 36.5001V28.5001Z" fill="#1551E5"/>
</symbol><symbol id="menu" viewBox="0 0 24 24">
<path fill-rule="evenodd" clip-rule="evenodd" d="M3 7C3 6.448 3.448 6 4 6C4.552 6 5 6.448 5 7C5 7.552 4.552 8 4 8C3.448 8 3 7.552 3 7ZM3 12C3 11.448 3.448 11 4 11C4.552 11 5 11.448 5 12C5 12.552 4.552 13 4 13C3.448 13 3 12.552 3 12ZM4 16C3.448 16 3 16.448 3 17C3 17.552 3.448 18 4 18C4.552 18 5 17.552 5 17C5 16.448 4.552 16 4 16ZM7.9355 11H20.0645C20.5795 11 21.0005 11.421 21.0005 11.936V12.064C21.0005 12.579 20.5795 13 20.0645 13H7.9355C7.4205 13 7.0005 12.579 7.0005 12.064V11.936C7.0005 11.421 7.4205 11 7.9355 11ZM20.0645 16H7.9355C7.4205 16 7.0005 16.421 7.0005 16.936V17.064C7.0005 17.579 7.4205 18 7.9355 18H20.0645C20.5795 18 21.0005 17.579 21.0005 17.064V16.936C21.0005 16.421 20.5795 16 20.0645 16ZM7.9355 6H20.0645C20.5795 6 21.0005 6.421 21.0005 6.936V7.064C21.0005 7.579 20.5795 8 20.0645 8H7.9355C7.4205 8 7.0005 7.579 7.0005 7.064V6.936C7.0005 6.421 7.4205 6 7.9355 6Z" fill="currentColor"/>
</symbol><symbol id="minus" viewBox="0 0 24 24">
<path fill-rule="evenodd" clip-rule="evenodd" d="M19 13H5C4.448 13 4 12.553 4 12C4 11.447 4.448 11 5 11H19C19.553 11 20 11.447 20 12C20 12.553 19.553 13 19 13" fill="currentColor"/>
</symbol><symbol id="pdf" viewBox="0 0 16 16">
<path fill-rule="evenodd" clip-rule="evenodd" d="M11.6295 13.3333H4.3702C4.1662 13.3333 4.0002 13.184 4.0002 13V3.00001C4.0002 2.81601 4.1662 2.66668 4.3702 2.66668H7.33354V5.43334C7.33354 6.48134 8.14487 7.33334 9.14287 7.33334H12.0002V13C12.0002 13.184 11.8335 13.3333 11.6295 13.3333V13.3333ZM11.7662 6.00001H9.14287C8.8802 6.00001 8.66687 5.74601 8.66687 5.43334V2.66668H8.74154L11.7662 6.00001ZM13.1602 5.55201L9.53087 1.55201C9.40487 1.41268 9.22554 1.33334 9.03687 1.33334H4.3702C3.43087 1.33334 2.66687 2.08134 2.66687 3.00001V13C2.66687 13.9187 3.43087 14.6667 4.3702 14.6667H11.6295C12.5689 14.6667 13.3335 13.9187 13.3335 13V6.00001C13.3335 5.83401 13.2715 5.67468 13.1602 5.55201V5.55201Z" fill="#071435"/>
</symbol><symbol id="percent" viewBox="0 0 16 16">
<path fill-rule="evenodd" clip-rule="evenodd" d="M13.4933 2.174C13.262 1.942 12.8867 1.942 12.6553 2.174L3.174 11.6553C3.058 11.7713 3 11.9227 3 12.0747C3 12.226 3.058 12.378 3.174 12.4933C3.40533 12.7247 3.78 12.7247 4.012 12.4933L13.4933 3.012C13.7247 2.78 13.7247 2.40533 13.4933 2.174M11.0002 12.0002C10.4489 12.0002 10.0002 11.5515 10.0002 11.0002C10.0002 10.4489 10.4489 10.0002 11.0002 10.0002C11.5515 10.0002 12.0002 10.4489 12.0002 11.0002C12.0002 11.5515 11.5515 12.0002 11.0002 12.0002M11.0002 8.66687C9.71353 8.66687 8.66687 9.71353 8.66687 11.0002C8.66687 12.2869 9.71353 13.3335 11.0002 13.3335C12.2869 13.3335 13.3335 12.2869 13.3335 11.0002C13.3335 9.71353 12.2869 8.66687 11.0002 8.66687M5.66687 3.33353C6.2182 3.33353 6.66687 3.7822 6.66687 4.33353C6.66687 4.88487 6.2182 5.33353 5.66687 5.33353C5.11553 5.33353 4.66687 4.88487 4.66687 4.33353C4.66687 3.7822 5.11553 3.33353 5.66687 3.33353M5.66687 6.66687C6.95353 6.66687 8.0002 5.6202 8.0002 4.33353C8.0002 3.04687 6.95353 2.0002 5.66687 2.0002C4.3802 2.0002 3.33353 3.04687 3.33353 4.33353C3.33353 5.6202 4.3802 6.66687 5.66687 6.66687" fill="currentColor"/>
</symbol><symbol id="plus" viewBox="0 0 24 24">
<path fill-rule="evenodd" clip-rule="evenodd" d="M19 11H13V5C13 4.447 12.552 4 12 4C11.448 4 11 4.447 11 5V11H5C4.448 11 4 11.447 4 12C4 12.553 4.448 13 5 13H11V19C11 19.553 11.448 20 12 20C12.552 20 13 19.553 13 19V13H19C19.552 13 20 12.553 20 12C20 11.447 19.552 11 19 11" fill="currentColor"/>
</symbol><symbol id="search" viewBox="0 0 24 24">
<path fill-rule="evenodd" clip-rule="evenodd" d="M17.312 15.897L20.707 19.293C21.098 19.684 21.098 20.316 20.707 20.707C20.512 20.902 20.256 21 20 21C19.744 21 19.488 20.902 19.293 20.707L15.897 17.312C14.543 18.365 12.846 19 11 19C6.589 19 3 15.411 3 11C3 6.589 6.589 3 11 3C15.411 3 19 6.589 19 11C19 12.846 18.365 14.543 17.312 15.897ZM11 5C7.691 5 5 7.691 5 11C5 14.309 7.691 17 11 17C14.309 17 17 14.309 17 11C17 7.691 14.309 5 11 5Z" fill="currentColor"/>
</symbol><symbol id="sprite">
  <symbol id="logo" viewBox="0 0 87 20" fill="none">
    <path d="M0.676 5.168C0.676 3.69467 1.03133 2.568 1.742 1.788C2.45267 0.990666 3.50133 0.592 4.888 0.592C6.27467 0.592 7.32333 0.990666 8.034 1.788C8.74467 2.568 9.1 3.69467 9.1 5.168V5.74H6.396V4.986C6.396 3.79 5.91933 3.192 4.966 3.192C4.01267 3.192 3.536 3.79 3.536 4.986C3.536 5.662 3.72667 6.30333 4.108 6.91C4.48933 7.49933 4.94867 8.03667 5.486 8.522C6.04067 9.00733 6.59533 9.51867 7.15 10.056C7.70467 10.576 8.17267 11.2347 8.554 12.032C8.93533 12.812 9.126 13.6787 9.126 14.632C9.126 16.1053 8.762 17.2407 8.034 18.038C7.306 18.818 6.24867 19.208 4.862 19.208C3.47533 19.208 2.418 18.818 1.69 18.038C0.962 17.2407 0.598 16.1053 0.598 14.632V13.514H3.302V14.814C3.302 15.9927 3.796 16.582 4.784 16.582C5.772 16.582 6.266 15.9927 6.266 14.814C6.266 14.138 6.07533 13.5053 5.694 12.916C5.31267 12.3093 4.84467 11.7633 4.29 11.278C3.75267 10.7927 3.20667 10.29 2.652 9.77C2.09733 9.23267 1.62933 8.574 1.248 7.794C0.866667 6.99667 0.676 6.12133 0.676 5.168ZM11.1546 0.799999H14.0146V14.84C14.0146 16.0187 14.5086 16.608 15.4966 16.608C16.4846 16.608 16.9786 16.0187 16.9786 14.84V0.799999H19.6826V14.658C19.6826 16.1313 19.3186 17.2667 18.5906 18.064C17.8626 18.844 16.8053 19.234 15.4186 19.234C14.0319 19.234 12.9746 18.844 12.2466 18.064C11.5186 17.2667 11.1546 16.1313 11.1546 14.658V0.799999ZM26.376 0.799999C29.2187 0.799999 30.64 2.29933 30.64 5.298V7.664C30.64 10.6627 29.2187 12.162 26.376 12.162H25.024V19H22.164V0.799999H26.376ZM26.376 3.4H25.024V9.562H26.376C26.844 9.562 27.1907 9.432 27.416 9.172C27.6587 8.912 27.78 8.47 27.78 7.846V5.116C27.78 4.492 27.6587 4.05 27.416 3.79C27.1907 3.53 26.844 3.4 26.376 3.4ZM35.3448 3.4V8.47H39.2708V11.07H35.3448V16.4H40.2848V19H32.4848V0.799999H40.2848V3.4H35.3448ZM51.469 19H48.557C48.3837 18.48 48.297 17.7347 48.297 16.764V13.904C48.297 13.072 48.1497 12.4827 47.855 12.136C47.5604 11.772 47.0837 11.59 46.425 11.59H45.437V19H42.577V0.799999H46.893C48.3664 0.799999 49.441 1.14667 50.117 1.84C50.793 2.516 51.131 3.56467 51.131 4.986V6.416C51.131 8.288 50.507 9.51867 49.259 10.108C50.5244 10.6453 51.157 11.9367 51.157 13.982V16.79C51.157 17.778 51.261 18.5147 51.469 19ZM46.815 3.4H45.437V8.99H46.555C47.127 8.99 47.5517 8.84267 47.829 8.548C48.1237 8.25333 48.271 7.75933 48.271 7.066V5.272C48.271 4.024 47.7857 3.4 46.815 3.4ZM57.848 11.46V8.86H61.852V14.632C61.852 16.1053 61.488 17.2407 60.76 18.038C60.032 18.818 58.9746 19.208 57.588 19.208C56.2013 19.208 55.144 18.818 54.416 18.038C53.688 17.2407 53.324 16.1053 53.324 14.632V5.168C53.324 3.69467 53.688 2.568 54.416 1.788C55.144 0.990666 56.2013 0.592 57.588 0.592C58.9746 0.592 60.032 0.990666 60.76 1.788C61.488 2.568 61.852 3.69467 61.852 5.168V6.936H59.148V4.986C59.148 3.79 58.654 3.192 57.666 3.192C56.678 3.192 56.184 3.79 56.184 4.986V14.814C56.184 15.9927 56.678 16.582 57.666 16.582C58.654 16.582 59.148 15.9927 59.148 14.814V11.46H57.848ZM66.506 19V12.968L62.892 0.799999H65.882L68.066 9.094L70.25 0.799999H72.98L69.366 12.968V19H66.506ZM78.6086 0.799999L80.7146 13.722L82.6646 0.799999H86.6426V19H83.9386V5.948L81.9626 19H79.2586L77.1266 6.13V19H74.6306V0.799999H78.6086Z" fill="white"/>
  </symbol>
  <symbol id="fb" viewBox="0 0 14 27">
    <path d="M13.4728 0.0056178L10.1148 0C6.34228 0 3.90429 2.60806 3.90429 6.64474V9.7084H0.528007C0.236257 9.7084 0 9.95503 0 10.2592V14.6981C0 15.0023 0.236526 15.2487 0.528007 15.2487H3.90429V26.4495C3.90429 26.7537 4.14055 27 4.4323 27H8.83738C9.12914 27 9.36539 26.7534 9.36539 26.4495V15.2487H13.3131C13.6048 15.2487 13.8411 15.0023 13.8411 14.6981L13.8427 10.2592C13.8427 10.1132 13.7869 9.97328 13.688 9.86992C13.5892 9.76655 13.4545 9.7084 13.3144 9.7084H9.36539V7.11129C9.36539 5.86302 9.65068 5.22933 11.2102 5.22933L13.4723 5.22849C13.7637 5.22849 14 4.98187 14 4.67794V0.556162C14 0.25252 13.764 0.00617958 13.4728 0.0056178Z" fill="white"/>
  </symbol>
  <symbol id="ig" viewBox="0 0 27 27">
    <path d="M19.6913 0H7.30865C3.27859 0 0 3.27859 0 7.30865V19.6916C0 23.7214 3.27859 27 7.30865 27H19.6916C23.7214 27 27 23.7214 27 19.6916V7.30865C27 3.27859 23.7214 0 19.6913 0V0ZM13.5 20.8826C9.42915 20.8826 6.11739 17.5708 6.11739 13.5C6.11739 9.42915 9.42915 6.11739 13.5 6.11739C17.5708 6.11739 20.8826 9.42915 20.8826 13.5C20.8826 17.5708 17.5708 20.8826 13.5 20.8826ZM21.0591 7.85845C19.8561 7.85845 18.8777 6.87998 18.8777 5.67698C18.8777 4.47398 19.8561 3.4953 21.0591 3.4953C22.2621 3.4953 23.2408 4.47398 23.2408 5.67698C23.2408 6.87998 22.2621 7.85845 21.0591 7.85845Z" fill="white"/>
    <path d="M13.5002 7.70044C10.3023 7.70044 7.70044 10.3021 7.70044 13.5002C7.70044 16.698 10.3023 19.2999 13.5002 19.2999C16.6982 19.2999 19.2999 16.698 19.2999 13.5002C19.2999 10.3021 16.6982 7.70044 13.5002 7.70044Z" fill="white"/>
    <path d="M21.0583 5.07861C20.7283 5.07861 20.4597 5.34723 20.4597 5.67723C20.4597 6.00723 20.7283 6.27585 21.0583 6.27585C21.3885 6.27585 21.6572 6.00744 21.6572 5.67723C21.6572 5.34702 21.3885 5.07861 21.0583 5.07861Z" fill="white"/>
  </symbol>
  <symbol id="vk" viewBox="0 0 32 17">
    <path fill-rule="evenodd" clip-rule="evenodd" d="M27.5406 10.8094C28.602 11.7823 29.7224 12.6976 30.6744 13.7686C31.095 14.2445 31.4931 14.7356 31.7977 15.288C32.2293 16.0731 31.8384 16.9371 31.0885 16.984L26.4266 16.982C25.2243 17.0757 24.2651 16.6213 23.4586 15.8496C22.8131 15.2324 22.2154 14.5756 21.5948 13.9376C21.3403 13.6768 21.074 13.4314 20.7559 13.2375C20.1195 12.8497 19.5671 12.9684 19.2034 13.5915C18.833 14.2253 18.749 14.927 18.7126 15.6333C18.6627 16.6638 18.3308 16.9348 17.2281 16.9819C14.8716 17.0863 12.6351 16.7516 10.5574 15.6356C8.72568 14.6517 7.30526 13.2628 6.06893 11.6905C3.66178 8.62871 1.81839 5.26434 0.161611 1.80571C-0.211316 1.02647 0.0614137 0.608187 0.977277 0.593382C2.49811 0.565647 4.01873 0.567621 5.54135 0.591408C6.15946 0.599896 6.56866 0.93271 6.80732 1.48089C7.63014 3.38016 8.63694 5.18715 9.90071 6.86208C10.2373 7.30801 10.5804 7.75393 11.0691 8.0678C11.6097 8.41532 12.0214 8.30014 12.2757 7.73479C12.4371 7.37631 12.5077 6.9902 12.5441 6.60625C12.6646 5.28536 12.6805 3.96673 12.4691 2.65048C12.3394 1.829 11.8465 1.29721 10.9733 1.14176C10.5278 1.0625 10.5941 0.906852 10.8098 0.668097C11.1846 0.256323 11.537 0 12.2395 0H17.5081C18.3376 0.153675 18.5218 0.503466 18.6353 1.28694L18.6398 6.78085C18.6308 7.08416 18.8012 7.9842 19.3832 8.18495C19.8489 8.32787 20.1559 7.97808 20.4354 7.70083C21.6968 6.44399 22.5972 4.95866 23.4015 3.42063C23.7584 2.74434 24.0653 2.04199 24.3627 1.34024C24.5831 0.819502 24.9289 0.563278 25.5538 0.574628L30.6245 0.578872C30.7748 0.578872 30.927 0.580945 31.0726 0.604337C31.9271 0.741036 32.1612 1.08609 31.8973 1.86937C31.4815 3.09828 30.6724 4.12238 29.8814 5.15123C29.0357 6.24965 28.1313 7.31048 27.2928 8.41542C26.5223 9.42442 26.5835 9.93302 27.5406 10.8094Z" fill="white"/>
  </symbol>
  <symbol id="arrow-next" viewBox="0 0 18 34" fill="none">
    <path d="M1 1L17 17L1 33" stroke="#AFAFAF"/>
  </symbol>
  <symbol id="arrow-prev" viewBox="0 0 18 34" fill="none">
    <path d="M17 33L0.999999 17L17 0.999998" stroke="#AFAFAF"/>
  </symbol>
</symbol><symbol id="talk" viewBox="0 0 16 16">
<path fill-rule="evenodd" clip-rule="evenodd" d="M4.33347 7.66618C4.33347 7.29818 4.63213 6.99951 5.00013 6.99951C5.36813 6.99951 5.6668 7.29818 5.6668 7.66618C5.6668 8.03418 5.36813 8.33285 5.00013 8.33285C4.63213 8.33285 4.33347 8.03418 4.33347 7.66618ZM7.6668 6.99951C7.2988 6.99951 7.00013 7.29818 7.00013 7.66618C7.00013 8.03418 7.2988 8.33285 7.6668 8.33285C8.0348 8.33285 8.33347 8.03418 8.33347 7.66618C8.33347 7.29818 8.0348 6.99951 7.6668 6.99951ZM10.3335 6.99951C9.96547 6.99951 9.6668 7.29818 9.6668 7.66618C9.6668 8.03418 9.96547 8.33285 10.3335 8.33285C10.7015 8.33285 11.0001 8.03418 11.0001 7.66618C11.0001 7.29818 10.7015 6.99951 10.3335 6.99951ZM12.9324 8.52945C12.5944 10.6988 10.8457 12.4981 8.67973 12.9041C7.63373 13.1014 6.5684 12.9888 5.60173 12.5794C5.32773 12.4634 5.0444 12.4048 4.7664 12.4048C4.63973 12.4048 4.5144 12.4168 4.39107 12.4414L2.5164 12.8161L2.89173 10.9381C2.9704 10.5481 2.9224 10.1308 2.75373 9.73145C2.3444 8.76478 2.2324 7.70011 2.42907 6.65345C2.83507 4.48745 4.63373 2.73878 6.80373 2.40078V2.40078C8.5304 2.13211 10.2191 2.67611 11.4377 3.89478C12.6571 5.11411 13.2017 6.80345 12.9324 8.52945M12.3811 2.95211C10.8577 1.42945 8.75107 0.750114 6.5984 1.08278C3.8804 1.50678 1.62707 3.69611 1.1184 6.40745C0.873067 7.71278 1.0144 9.04211 1.52573 10.2508C1.5904 10.4048 1.6104 10.5481 1.58507 10.6768L1.01307 13.5354C0.969067 13.7541 1.03773 13.9801 1.19573 14.1374C1.32173 14.2641 1.49173 14.3328 1.66707 14.3328C1.7104 14.3328 1.75373 14.3288 1.79773 14.3201L4.65307 13.7488C4.81707 13.7174 4.97573 13.7634 5.08173 13.8074C6.29173 14.3188 7.62107 14.4594 8.92507 14.2148C11.6371 13.7061 13.8264 11.4528 14.2504 8.73478C14.5851 6.58345 13.9044 4.47545 12.3811 2.95211" fill="currentColor"/>
</symbol><symbol id="video" viewBox="0 0 16 16">
<path fill-rule="evenodd" clip-rule="evenodd" d="M13.5 9.9L11.6273 8.16667L13.5 6.434V9.9ZM10.1667 10.8333C10.1667 11.2013 9.868 11.5 9.5 11.5H3.5C3.132 11.5 2.83333 11.2013 2.83333 10.8333V5.5C2.83333 5.13267 3.132 4.83333 3.5 4.83333H9.5C9.868 4.83333 10.1667 5.13267 10.1667 5.5V10.8333ZM14.1747 4.93067C13.7573 4.74867 13.2733 4.828 12.9407 5.13467L11.5 6.468V5.5C11.5 4.39733 10.6027 3.5 9.5 3.5H3.5C2.39733 3.5 1.5 4.39733 1.5 5.5V10.8333C1.5 11.9367 2.39733 12.8333 3.5 12.8333H9.5C10.6027 12.8333 11.5 11.9367 11.5 10.8333V9.866L12.9407 11.1987C13.154 11.3967 13.4307 11.5 13.7127 11.5C13.8687 11.5 14.0253 11.4687 14.1747 11.4033C14.5807 11.226 14.8333 10.8467 14.8333 10.414V5.92C14.8333 5.48733 14.5807 5.108 14.1747 4.93067V4.93067Z" fill="#071435"/>
</symbol><symbol id="youtube" viewBox="0 0 16 16">
<path d="M14.3864 4.72445C14.2349 4.17965 13.7803 3.74954 13.2045 3.599C12.1667 3.33377 8 3.33377 8 3.33377C8 3.33377 3.83334 3.33377 2.78788 3.599C2.21212 3.74237 1.76515 4.17248 1.60606 4.72445C1.33334 5.7137 1.33334 7.77822 1.33334 7.77822C1.33334 7.77822 1.33334 9.84273 1.61364 10.832C1.76515 11.3768 2.2197 11.8069 2.79546 11.9574C3.83334 12.2227 8 12.2227 8 12.2227C8 12.2227 12.1667 12.2227 13.2121 11.9574C13.7879 11.8141 14.2349 11.384 14.3939 10.832C14.6667 9.84273 14.6667 7.77822 14.6667 7.77822C14.6667 7.77822 14.6667 5.7137 14.3864 4.72445ZM6.63637 9.65635V5.90008L10.1212 7.77822L6.63637 9.65635Z" fill="#071435"/>
</symbol></svg>